<svg width="375" height="1573" viewBox="0 0 375 1573" fill="none" xmlns="http://www.w3.org/2000/svg">
<g opacity="0.07">
<path d="M1705.42 2583.94C1489.49 2943.73 1023.31 3146.72 569.619 3221.44C119.48 3289.99 -321.736 3236.43 -780.917 3057.54C-1243.65 2884.81 -1729.21 2588.05 -1797.67 2215.97C-1866.14 1843.89 -1513.95 1390.33 -1212.25 981.534C-906.98 566.577 -646.032 199.934 -230.427 -36.3628C191.336 -269.104 767.755 -371.499 1142.46 -138.739C1515.87 89.1634 1686.26 647.363 1787.96 1182.32C1889.65 1717.28 1922.66 2229.01 1705.42 2583.94Z" stroke="black"/>
<path d="M1621.31 2543.6C1416.17 2885.4 973.31 3078.25 542.3 3149.23C114.668 3214.36 -304.487 3163.47 -740.708 2993.53C-1180.31 2829.43 -1641.59 2547.51 -1706.63 2194.03C-1771.67 1840.56 -1437.09 1409.68 -1150.47 1021.32C-860.469 627.11 -612.568 278.799 -217.743 54.3171C182.932 -166.787 730.53 -264.062 1086.5 -42.9404C1441.24 173.567 1603.11 703.857 1699.72 1212.07C1796.33 1720.28 1827.69 2206.42 1621.31 2543.6Z" stroke="black"/>
<path d="M1448.24 2444.83C1264.7 2750.65 868.453 2923.2 482.813 2986.71C100.195 3044.98 -274.839 2999.45 -665.142 2847.39C-1058.47 2700.57 -1471.19 2448.33 -1529.39 2132.06C-1587.58 1815.79 -1288.22 1430.27 -1031.77 1082.79C-772.296 730.074 -550.49 418.428 -197.226 217.575C161.273 19.7455 651.229 -67.29 969.73 130.556C1287.12 324.273 1431.96 798.742 1518.4 1253.46C1604.84 1708.18 1632.89 2143.14 1448.24 2444.83Z" stroke="black"/>
<path d="M1275.17 2346.06C1113.22 2615.9 763.592 2768.15 423.321 2824.18C85.7169 2875.6 -245.195 2835.43 -589.58 2701.26C-936.632 2571.71 -1300.8 2349.14 -1352.15 2070.08C-1403.5 1791.02 -1139.36 1450.86 -913.077 1144.26C-684.128 833.038 -488.417 558.056 -176.713 380.834C139.609 206.278 571.924 129.482 852.954 304.051C1133.01 474.978 1260.8 893.628 1337.07 1294.85C1413.35 1696.07 1438.1 2079.86 1275.17 2346.06Z" stroke="black"/>
<path d="M1102.1 2247.29C961.747 2481.15 658.735 2613.1 363.833 2661.66C71.2431 2706.22 -215.547 2671.41 -514.015 2555.13C-814.793 2442.85 -1130.41 2249.96 -1174.91 2008.11C-1219.41 1766.26 -990.489 1471.44 -794.378 1205.72C-595.956 936.003 -426.339 697.685 -156.196 544.092C117.95 392.81 492.622 326.253 736.182 477.547C978.896 625.684 1089.65 988.513 1155.75 1336.24C1221.86 1683.96 1243.31 2016.58 1102.1 2247.29Z" stroke="black"/>
<path d="M929.037 2148.52C810.273 2346.4 553.878 2458.05 304.346 2499.14C56.7698 2536.85 -185.899 2507.39 -438.448 2409C-692.953 2313.99 -960.01 2150.78 -997.665 1946.13C-1035.32 1741.49 -841.619 1492.03 -675.679 1267.19C-507.783 1038.97 -364.262 837.313 -135.679 707.35C96.2908 579.342 413.321 523.025 619.41 651.043C824.783 776.389 918.499 1083.4 974.432 1377.63C1030.37 1671.86 1048.52 1953.3 929.037 2148.52Z" stroke="black"/>
<path d="M755.97 2049.74C658.799 2211.65 449.021 2303 244.859 2336.62C42.2964 2367.47 -156.251 2343.37 -362.882 2262.86C-571.113 2185.14 -789.614 2051.59 -820.423 1884.16C-851.232 1716.72 -692.749 1512.62 -556.98 1328.66C-419.611 1141.93 -302.184 976.942 -115.162 870.608C74.6317 765.875 334.02 719.797 502.639 824.539C670.671 927.095 747.347 1178.28 793.111 1419.02C838.875 1659.75 853.726 1890.02 755.97 2049.74Z" stroke="black"/>
<path d="M582.898 1950.97C507.321 2076.9 344.16 2147.95 185.367 2174.1C27.8186 2198.09 -126.607 2179.34 -287.32 2116.73C-449.278 2056.28 -619.223 1952.41 -643.185 1822.18C-667.148 1691.96 -543.883 1533.21 -438.285 1390.13C-331.442 1244.9 -240.11 1116.57 -94.6488 1033.87C52.9683 952.407 254.715 916.569 385.863 998.035C516.554 1077.8 576.192 1273.17 611.786 1460.41C647.38 1647.64 658.93 1826.75 582.898 1950.97Z" stroke="black"/>
<path d="M409.83 1852.2C355.847 1942.15 239.303 1992.9 125.88 2011.57C13.3451 2028.71 -96.9589 2015.32 -211.754 1970.6C-327.438 1927.42 -448.827 1853.23 -465.943 1760.21C-483.059 1667.19 -395.013 1553.8 -319.586 1451.6C-243.27 1347.86 -178.033 1256.2 -74.1316 1197.12C31.3092 1138.94 175.414 1113.34 269.091 1171.53C362.442 1228.51 405.04 1368.06 430.464 1501.8C455.889 1635.54 464.139 1763.47 409.83 1852.2Z" stroke="black"/>
<path d="M1360.1 2389.47C1186.98 2675.88 813.94 2837.91 451.043 2897.9C90.9976 2952.99 -261.759 2910.95 -628.723 2769.25C-998.538 2632.46 -1386.45 2397.06 -1440.73 2101.23C-1495.01 1805.41 -1212.81 1444.25 -971.025 1118.75C-726.394 788.35 -517.261 496.43 -184.62 307.98C152.941 122.35 614.011 40.1896 913.357 224.831C1211.67 405.612 1347.22 849.333 1427.87 1274.66C1508.52 1699.98 1534.27 2106.92 1360.1 2389.47Z" stroke="black"/>
<path d="M1187.54 2292.57C1036.05 2543.18 709.646 2684.96 392.112 2737.45C77.0717 2785.66 -231.59 2748.87 -552.684 2624.89C-876.272 2505.19 -1215.69 2299.22 -1263.19 2040.37C-1310.68 1781.52 -1063.76 1465.51 -852.198 1180.7C-638.146 891.596 -455.155 636.166 -164.094 471.273C131.272 308.846 534.708 236.956 796.636 398.517C1057.66 556.7 1176.27 944.956 1246.84 1317.12C1317.4 1689.28 1339.93 2045.34 1187.54 2292.57Z" stroke="black"/>
<path d="M1532.67 2486.36C1337.9 2808.57 918.238 2990.85 509.979 3058.35C104.928 3120.32 -291.923 3073.02 -704.758 2913.62C-1120.8 2759.73 -1557.2 2494.9 -1618.26 2162.1C-1679.33 1829.29 -1361.85 1422.99 -1089.85 1056.8C-814.637 685.104 -579.363 356.694 -205.142 144.688C174.614 -64.1463 693.318 -156.577 1030.08 51.1449C1365.68 254.523 1518.18 753.709 1608.91 1232.2C1699.64 1710.69 1728.61 2168.49 1532.67 2486.36Z" stroke="black"/>
<path d="M1014.98 2195.68C885.13 2410.49 605.352 2532.01 333.18 2577C63.1459 2618.32 -201.421 2586.79 -476.644 2480.52C-754.006 2377.93 -1044.94 2201.38 -1085.65 1979.5C-1126.36 1757.63 -914.707 1486.77 -733.371 1242.64C-549.898 994.843 -393.048 775.903 -143.567 634.565C109.604 495.343 455.406 433.722 679.915 572.203C903.649 707.789 1005.31 1040.58 1065.8 1359.57C1126.29 1678.57 1145.6 1983.77 1014.98 2195.68Z" stroke="black"/>
<path d="M842.412 2098.79C734.207 2277.79 501.059 2379.06 274.249 2416.56C49.2201 2450.99 -171.253 2424.71 -400.605 2336.15C-631.74 2250.66 -874.182 2103.53 -908.107 1918.64C-942.032 1733.75 -765.657 1508.02 -614.544 1304.59C-461.65 1098.09 -330.942 915.639 -123.041 797.858C87.9348 681.839 376.104 630.489 563.195 745.89C749.639 858.877 834.36 1136.2 884.766 1402.03C935.172 1667.86 951.263 1922.19 842.412 2098.79Z" stroke="black"/>
<path d="M497.279 1905C432.356 2012.4 292.467 2073.17 156.381 2095.66C21.3642 2116.32 -110.919 2100.56 -248.531 2047.42C-387.212 1996.12 -532.677 1907.85 -553.032 1796.91C-573.387 1685.98 -467.562 1550.54 -376.894 1428.48C-285.158 1304.58 -206.733 1195.11 -81.9924 1124.44C44.593 1054.83 217.494 1024.02 329.749 1093.26C441.616 1161.05 492.448 1327.45 522.692 1486.95C552.935 1646.44 562.59 1799.04 497.279 1905Z" stroke="black"/>
<path d="M497.279 1905C432.356 2012.4 292.467 2073.17 156.381 2095.66C21.3642 2116.32 -110.919 2100.56 -248.531 2047.42C-387.212 1996.12 -532.677 1907.85 -553.032 1796.91C-573.387 1685.98 -467.562 1550.54 -376.894 1428.48C-285.158 1304.58 -206.733 1195.11 -81.9924 1124.44C44.593 1054.83 217.494 1024.02 329.749 1093.26C441.616 1161.05 492.448 1327.45 522.692 1486.95C552.935 1646.44 562.59 1799.04 497.279 1905Z" stroke="black"/>
<path d="M324.715 1808.11C281.433 1879.71 188.174 1920.22 97.4496 1935.22C7.43816 1948.99 -80.751 1938.48 -172.492 1903.05C-264.946 1868.86 -361.923 1810.01 -375.493 1736.05C-389.063 1662.09 -318.513 1571.8 -258.068 1490.43C-196.91 1407.83 -144.627 1334.85 -61.4663 1287.74C22.9241 1241.33 138.192 1220.79 213.028 1266.95C287.606 1312.14 321.494 1423.07 341.656 1529.41C361.819 1635.74 368.255 1737.47 324.715 1808.11Z" stroke="black"/>
<path d="M324.715 1808.11C281.433 1879.71 188.174 1920.22 97.4496 1935.22C7.43816 1948.99 -80.751 1938.48 -172.492 1903.05C-264.946 1868.86 -361.923 1810.01 -375.493 1736.05C-389.063 1662.09 -318.513 1571.8 -258.068 1490.43C-196.91 1407.83 -144.627 1334.85 -61.4663 1287.74C22.9241 1241.33 138.192 1220.79 213.028 1266.95C287.606 1312.14 321.494 1423.07 341.656 1529.41C361.819 1635.74 368.255 1737.47 324.715 1808.11Z" stroke="black"/>
<path d="M240.858 1768.71C208.397 1822.41 138.452 1852.79 70.4093 1864.04C2.90073 1874.37 -63.2411 1866.49 -132.047 1839.92C-201.387 1814.27 -274.12 1770.14 -284.297 1714.67C-294.475 1659.2 -241.562 1591.48 -196.229 1530.45C-150.36 1468.5 -111.148 1413.77 -48.7776 1378.43C14.5152 1343.63 100.966 1328.22 157.093 1362.84C213.027 1396.74 238.443 1479.94 253.564 1559.69C268.686 1639.43 273.514 1715.73 240.858 1768.71Z" stroke="black"/>
<path d="M240.858 1768.71C208.397 1822.41 138.452 1852.79 70.4093 1864.04C2.90073 1874.37 -63.2411 1866.49 -132.047 1839.92C-201.387 1814.27 -274.12 1770.14 -284.297 1714.67C-294.475 1659.2 -241.562 1591.48 -196.229 1530.45C-150.36 1468.5 -111.148 1413.77 -48.7776 1378.43C14.5152 1343.63 100.966 1328.22 157.093 1362.84C213.027 1396.74 238.443 1479.94 253.564 1559.69C268.686 1639.43 273.514 1715.73 240.858 1768.71Z" stroke="black"/>
<path d="M152.151 1711.21C130.51 1747.02 83.8802 1767.27 38.5181 1774.77C-6.48755 1781.65 -50.5821 1776.4 -96.4526 1758.69C-142.679 1741.59 -191.168 1712.16 -197.953 1675.18C-204.738 1638.21 -169.463 1593.06 -139.24 1552.37C-108.661 1511.07 -82.5199 1474.58 -40.9398 1451.03C1.25538 1427.82 58.8891 1417.55 96.3074 1440.63C133.596 1463.23 150.54 1518.7 160.622 1571.86C170.703 1625.03 173.921 1675.9 152.151 1711.21Z" stroke="black"/>
<path d="M152.151 1711.21C130.51 1747.02 83.8802 1767.27 38.5181 1774.77C-6.48755 1781.65 -50.5821 1776.4 -96.4526 1758.69C-142.679 1741.59 -191.168 1712.16 -197.953 1675.18C-204.738 1638.21 -169.463 1593.06 -139.24 1552.37C-108.661 1511.07 -82.5199 1474.58 -40.9398 1451.03C1.25538 1427.82 58.8891 1417.55 96.3074 1440.63C133.596 1463.23 150.54 1518.7 160.622 1571.86C170.703 1625.03 173.921 1675.9 152.151 1711.21Z" stroke="black"/>
<path d="M68.2941 1671.82C57.4736 1689.72 34.1588 1699.85 11.4778 1703.6C-11.025 1707.04 -33.0723 1704.41 -56.0076 1695.56C-79.121 1687.01 -103.365 1672.29 -106.758 1653.8C-110.15 1635.31 -92.5127 1612.74 -77.4015 1592.4C-62.112 1571.75 -49.0412 1553.5 -28.2511 1541.73C-7.15356 1530.12 21.6633 1524.99 40.3724 1536.53C59.0169 1547.83 67.4889 1575.56 72.5295 1602.14C77.5701 1628.73 79.1793 1654.16 68.2941 1671.82Z" stroke="black"/>
<path d="M68.2941 1671.82C57.4736 1689.72 34.1588 1699.85 11.4778 1703.6C-11.025 1707.04 -33.0723 1704.41 -56.0076 1695.56C-79.121 1687.01 -103.365 1672.29 -106.758 1653.8C-110.15 1635.31 -92.5127 1612.74 -77.4015 1592.4C-62.112 1571.75 -49.0412 1553.5 -28.2511 1541.73C-7.15356 1530.12 21.6633 1524.99 40.3724 1536.53C59.0169 1547.83 67.4889 1575.56 72.5295 1602.14C77.5701 1628.73 79.1793 1654.16 68.2941 1671.82Z" stroke="black"/>
<path d="M669.843 2001.89C583.279 2145.1 396.761 2226.11 215.313 2256.11C35.29 2283.66 -141.088 2262.63 -324.57 2191.79C-509.478 2123.39 -703.432 2005.69 -730.572 1857.78C-757.712 1709.86 -616.612 1529.28 -495.721 1366.54C-373.406 1201.34 -268.839 1055.38 -102.519 961.15C66.2618 868.335 296.797 827.255 446.47 919.576C595.625 1009.97 663.402 1231.83 703.727 1444.49C744.051 1657.15 756.925 1860.62 669.843 2001.89Z" stroke="black"/>
<path d="M669.843 2001.89C583.279 2145.1 396.761 2226.11 215.313 2256.11C35.29 2283.66 -141.088 2262.63 -324.57 2191.79C-509.478 2123.39 -703.432 2005.69 -730.572 1857.78C-757.712 1709.86 -616.612 1529.28 -495.721 1366.54C-373.406 1201.34 -268.839 1055.38 -102.519 961.15C66.2618 868.335 296.797 827.255 446.47 919.576C595.625 1009.97 663.402 1231.83 703.727 1444.49C744.051 1657.15 756.925 1860.62 669.843 2001.89Z" stroke="black"/>
</g>
</svg>
