<svg width="768" height="1271" viewBox="0 0 768 1271" fill="none" xmlns="http://www.w3.org/2000/svg">
<g opacity="0.07">
<path d="M1909.42 2583.94C1693.49 2943.73 1227.31 3146.72 773.619 3221.44C323.48 3289.99 -117.736 3236.43 -576.917 3057.54C-1039.65 2884.81 -1525.21 2588.05 -1593.67 2215.97C-1662.14 1843.89 -1309.95 1390.33 -1008.25 981.534C-702.98 566.577 -442.032 199.934 -26.427 -36.3628C395.336 -269.104 971.755 -371.499 1346.46 -138.739C1719.87 89.1634 1890.26 647.363 1991.96 1182.32C2093.65 1717.28 2126.66 2229.01 1909.42 2583.94Z" stroke="black"/>
<path d="M1825.31 2543.6C1620.17 2885.4 1177.31 3078.25 746.3 3149.23C318.668 3214.36 -100.487 3163.47 -536.708 2993.53C-976.307 2829.43 -1437.59 2547.51 -1502.63 2194.03C-1567.67 1840.56 -1233.09 1409.68 -946.47 1021.32C-656.469 627.11 -408.567 278.799 -13.743 54.3173C386.932 -166.787 934.53 -264.062 1290.5 -42.9401C1645.24 173.567 1807.11 703.857 1903.72 1212.07C2000.33 1720.28 2031.69 2206.42 1825.31 2543.6Z" stroke="black"/>
<path d="M1652.24 2444.83C1468.7 2750.65 1072.45 2923.2 686.811 2986.71C304.193 3044.98 -70.8408 2999.45 -461.144 2847.39C-854.47 2700.57 -1267.19 2448.33 -1325.39 2132.06C-1383.58 1815.79 -1084.23 1430.27 -827.773 1082.79C-568.298 730.074 -346.492 418.428 6.77195 217.575C365.271 19.7455 855.227 -67.29 1173.73 130.556C1491.12 324.273 1635.96 798.742 1722.4 1253.46C1808.84 1708.18 1836.89 2143.14 1652.24 2444.83Z" stroke="black"/>
<path d="M1479.17 2346.06C1317.22 2615.9 967.594 2768.15 627.323 2824.18C289.719 2875.6 -41.1931 2835.43 -385.578 2701.26C-732.63 2571.71 -1096.8 2349.14 -1148.15 2070.08C-1199.49 1791.02 -935.357 1450.86 -709.075 1144.26C-480.126 833.038 -284.415 558.056 27.2889 380.834C343.611 206.278 775.926 129.482 1056.96 304.051C1337.01 474.978 1464.8 893.628 1541.08 1294.85C1617.35 1696.07 1642.1 2079.86 1479.17 2346.06Z" stroke="black"/>
<path d="M1306.1 2247.29C1165.75 2481.15 862.735 2613.1 567.833 2661.66C275.243 2706.22 -11.5473 2671.41 -310.015 2555.13C-610.793 2442.85 -926.405 2249.96 -970.907 2008.11C-1015.41 1766.26 -786.489 1471.44 -590.378 1205.72C-391.956 936.003 -222.339 697.685 47.8039 544.092C321.95 392.81 696.622 326.253 940.182 477.547C1182.9 625.684 1293.65 988.513 1359.75 1336.24C1425.86 1683.96 1447.31 2016.58 1306.1 2247.29Z" stroke="black"/>
<path d="M1133.04 2148.52C1014.27 2346.4 757.878 2458.05 508.346 2499.14C260.77 2536.85 18.101 2507.39 -234.448 2409C-488.953 2313.99 -756.01 2150.78 -793.665 1946.13C-831.32 1741.49 -637.619 1492.03 -471.679 1267.19C-303.783 1038.97 -160.262 837.313 68.3211 707.35C300.291 579.342 617.321 523.025 823.41 651.043C1028.78 776.389 1122.5 1083.4 1178.43 1377.63C1234.37 1671.86 1252.52 1953.3 1133.04 2148.52Z" stroke="black"/>
<path d="M959.968 2049.74C862.797 2211.65 653.019 2303 448.857 2336.62C246.294 2367.47 47.747 2343.37 -158.884 2262.86C-367.115 2185.14 -585.616 2051.59 -616.425 1884.16C-647.234 1716.72 -488.751 1512.62 -352.982 1328.66C-215.613 1141.93 -98.186 976.942 88.8361 870.608C278.63 765.875 538.018 719.797 706.636 824.539C874.669 927.095 951.345 1178.28 997.109 1419.02C1042.87 1659.75 1057.72 1890.02 959.968 2049.74Z" stroke="black"/>
<path d="M786.9 1950.97C711.323 2076.9 548.162 2147.95 389.369 2174.1C231.821 2198.09 77.3952 2179.34 -83.3179 2116.73C-245.275 2056.28 -415.22 1952.41 -439.183 1822.18C-463.146 1691.96 -339.881 1533.21 -234.283 1390.13C-127.44 1244.9 -36.1082 1116.57 109.353 1033.87C256.971 952.407 458.717 916.569 589.865 998.035C720.557 1077.8 780.194 1273.17 815.788 1460.41C851.382 1647.64 862.933 1826.75 786.9 1950.97Z" stroke="black"/>
<path d="M613.83 1852.2C559.847 1942.15 443.303 1992.9 329.88 2011.57C217.345 2028.71 107.041 2015.32 -7.75398 1970.6C-123.438 1927.42 -244.827 1853.23 -261.943 1760.21C-279.059 1667.19 -191.013 1553.8 -115.586 1451.6C-39.2699 1347.86 25.9672 1256.2 129.868 1197.12C235.309 1138.94 379.414 1113.34 473.091 1171.53C566.442 1228.51 609.04 1368.06 634.464 1501.8C659.889 1635.54 668.139 1763.47 613.83 1852.2Z" stroke="black"/>
<path d="M1564.11 2389.47C1390.98 2675.88 1017.94 2837.91 655.045 2897.9C295 2952.99 -57.7568 2910.95 -424.721 2769.25C-794.536 2632.46 -1182.44 2397.06 -1236.72 2101.23C-1291 1805.41 -1008.8 1444.25 -767.023 1118.75C-522.392 788.35 -313.259 496.43 19.3819 307.98C356.943 122.35 818.013 40.1897 1117.36 224.831C1415.67 405.612 1551.22 849.333 1631.87 1274.66C1712.52 1699.98 1738.27 2106.92 1564.11 2389.47Z" stroke="black"/>
<path d="M1391.54 2292.57C1240.05 2543.18 913.646 2684.96 596.112 2737.45C281.072 2785.66 -27.5902 2748.87 -348.684 2624.89C-672.272 2505.19 -1011.69 2299.22 -1059.19 2040.37C-1106.68 1781.52 -859.756 1465.51 -648.198 1180.7C-434.146 891.596 -251.155 636.166 39.9062 471.273C335.272 308.846 738.708 236.956 1000.64 398.517C1261.66 556.7 1380.27 944.956 1450.84 1317.12C1521.4 1689.28 1543.93 2045.34 1391.54 2292.57Z" stroke="black"/>
<path d="M1736.67 2486.36C1541.9 2808.57 1122.24 2990.85 713.977 3058.35C308.926 3120.32 -87.9254 3073.02 -500.76 2913.62C-916.802 2759.73 -1353.2 2494.9 -1414.26 2162.1C-1475.33 1829.29 -1157.85 1422.99 -885.85 1056.8C-610.64 685.104 -375.366 356.694 -1.14426 144.688C378.612 -64.1463 897.316 -156.577 1234.08 51.1449C1569.68 254.523 1722.18 753.709 1812.91 1232.2C1903.64 1710.69 1932.6 2168.49 1736.67 2486.36Z" stroke="black"/>
<path d="M1218.98 2195.68C1089.13 2410.49 809.352 2532.01 537.18 2577C267.146 2618.32 2.57856 2586.79 -272.644 2480.52C-550.006 2377.93 -840.937 2201.38 -881.647 1979.5C-922.356 1757.63 -710.707 1486.77 -529.371 1242.64C-345.898 994.843 -189.048 775.903 60.4326 634.565C313.604 495.343 659.406 433.722 883.915 572.203C1107.65 707.789 1209.31 1040.58 1269.8 1359.57C1330.29 1678.57 1349.6 1983.77 1218.98 2195.68Z" stroke="black"/>
<path d="M1046.41 2098.79C938.205 2277.79 705.057 2379.06 478.246 2416.56C253.218 2450.99 32.7451 2424.71 -196.607 2336.15C-427.742 2250.66 -670.184 2103.53 -704.109 1918.64C-738.034 1733.75 -561.659 1508.02 -410.546 1304.59C-257.652 1098.09 -126.944 915.639 80.9568 797.858C291.933 681.839 580.101 630.489 767.193 745.89C953.637 858.877 1038.36 1136.2 1088.76 1402.03C1139.17 1667.86 1155.26 1922.19 1046.41 2098.79Z" stroke="black"/>
<path d="M701.281 1905C636.358 2012.4 496.469 2073.16 360.383 2095.66C225.366 2116.32 93.0825 2100.56 -44.529 2047.42C-183.21 1996.12 -328.675 1907.85 -349.03 1796.91C-369.385 1685.98 -263.56 1550.54 -172.892 1428.48C-81.1556 1304.58 -2.73089 1195.11 122.01 1124.44C248.595 1054.83 421.496 1024.02 533.751 1093.26C645.618 1161.05 696.45 1327.45 726.694 1486.95C756.937 1646.44 766.592 1799.04 701.281 1905Z" stroke="black"/>
<path d="M701.281 1905C636.358 2012.4 496.469 2073.16 360.383 2095.66C225.366 2116.32 93.0825 2100.56 -44.529 2047.42C-183.21 1996.12 -328.675 1907.85 -349.03 1796.91C-369.385 1685.98 -263.56 1550.54 -172.892 1428.48C-81.1556 1304.58 -2.73089 1195.11 122.01 1124.44C248.595 1054.83 421.496 1024.02 533.751 1093.26C645.618 1161.05 696.45 1327.45 726.694 1486.95C756.937 1646.44 766.592 1799.04 701.281 1905Z" stroke="black"/>
<path d="M528.715 1808.11C485.433 1879.71 392.174 1920.22 301.45 1935.22C211.438 1948.99 123.249 1938.48 31.508 1903.05C-60.9457 1868.86 -157.923 1810.01 -171.493 1736.05C-185.063 1662.09 -114.513 1571.8 -54.0676 1490.43C7.09031 1407.83 59.3735 1334.85 142.534 1287.74C226.924 1241.33 342.192 1220.79 417.028 1266.95C491.606 1312.14 525.494 1423.07 545.656 1529.41C565.819 1635.74 572.255 1737.47 528.715 1808.11Z" stroke="black"/>
<path d="M528.715 1808.11C485.433 1879.71 392.174 1920.22 301.45 1935.22C211.438 1948.99 123.249 1938.48 31.508 1903.05C-60.9457 1868.86 -157.923 1810.01 -171.493 1736.05C-185.063 1662.09 -114.513 1571.8 -54.0676 1490.43C7.09031 1407.83 59.3735 1334.85 142.534 1287.74C226.924 1241.33 342.192 1220.79 417.028 1266.95C491.606 1312.14 525.494 1423.07 545.656 1529.41C565.819 1635.74 572.255 1737.47 528.715 1808.11Z" stroke="black"/>
<path d="M873.846 2001.89C787.282 2145.1 600.763 2226.11 419.315 2256.11C239.292 2283.66 62.914 2262.63 -120.568 2191.79C-305.476 2123.39 -499.43 2005.69 -526.57 1857.78C-553.709 1709.86 -412.61 1529.28 -291.719 1366.54C-169.404 1201.34 -64.8372 1055.38 101.483 961.15C270.264 868.335 500.799 827.255 650.472 919.576C799.628 1009.97 867.404 1231.83 907.729 1444.49C948.054 1657.15 960.927 1860.62 873.846 2001.89Z" stroke="black"/>
<path d="M873.846 2001.89C787.282 2145.1 600.763 2226.11 419.315 2256.11C239.292 2283.66 62.914 2262.63 -120.568 2191.79C-305.476 2123.39 -499.43 2005.69 -526.57 1857.78C-553.709 1709.86 -412.61 1529.28 -291.719 1366.54C-169.404 1201.34 -64.8372 1055.38 101.483 961.15C270.264 868.335 500.799 827.255 650.472 919.576C799.628 1009.97 867.404 1231.83 907.729 1444.49C948.054 1657.15 960.927 1860.62 873.846 2001.89Z" stroke="black"/>
</g>
</svg>
