<svg width="36" height="26" viewBox="0 0 36 26" fill="none" xmlns="http://www.w3.org/2000/svg">
<path d="M34.1111 22.7222C34.8782 22.7222 35.5 23.344 35.5 24.1111C35.5 24.8782 34.8782 25.5 34.1111 25.5H1.88889C1.12183 25.5 0.5 24.8782 0.5 24.1111C0.5 23.344 1.12183 22.7222 1.88889 22.7222H34.1111ZM34.1111 11.6111C34.8782 11.6111 35.5 12.2329 35.5 13C35.5 13.7671 34.8782 14.3889 34.1111 14.3889H1.88889C1.12183 14.3889 0.5 13.7671 0.5 13C0.5 12.2329 1.12183 11.6111 1.88889 11.6111H34.1111ZM34.1111 0.5C34.8782 0.5 35.5 1.12183 35.5 1.88889C35.5 2.65595 34.8782 3.27778 34.1111 3.27778H1.88889C1.12183 3.27778 0.5 2.65595 0.5 1.88889C0.5 1.12183 1.12183 0.5 1.88889 0.5H34.1111Z" fill="#333333"/>
</svg>
