<svg width="16" height="18" viewBox="0 0 16 18" fill="none" xmlns="http://www.w3.org/2000/svg">
<path d="M10.7135 8.34627C11.8653 7.50628 12.6153 6.14686 12.6153 4.61538C12.6153 2.07046 10.5448 0 7.99989 0C5.45497 0 3.38451 2.07046 3.38451 4.61538C3.38451 6.14686 4.1345 7.50628 5.28629 8.34627C2.42316 9.44191 0.384521 12.2179 0.384521 15.4615C0.384521 16.8613 1.52327 18 2.92298 18H13.0768C14.4765 18 15.6153 16.8613 15.6153 15.4615C15.6153 12.2179 13.5766 9.44191 10.7135 8.34627ZM4.76914 4.61538C4.76914 2.83395 6.21846 1.38463 7.99989 1.38463C9.78133 1.38463 11.2306 2.83395 11.2306 4.61538C11.2306 6.39682 9.78133 7.84617 7.99989 7.84617C6.21846 7.84617 4.76914 6.39682 4.76914 4.61538ZM13.0768 16.6154H2.92298C2.28676 16.6154 1.76915 16.0978 1.76915 15.4615C1.76915 12.0258 4.56421 9.23073 7.99993 9.23073C11.4356 9.23073 14.2307 12.0258 14.2307 15.4615C14.2307 16.0978 13.7131 16.6154 13.0768 16.6154Z" fill="white"/>
</svg>
