<svg width="93" height="93" viewBox="0 0 93 93" fill="none" xmlns="http://www.w3.org/2000/svg">
<circle cx="46.5" cy="46.5" r="42" fill="#5BC3E3" stroke="white" stroke-width="9"/>
<path d="M42.9836 31.3812C40.3453 28.743 36.3958 28.3254 33.3071 29.9892C33.0218 30.1429 32.8259 30.4224 32.7788 30.7431C32.7318 31.0638 32.8391 31.3879 33.0683 31.6171L36.9166 35.4653C37.3165 35.8652 37.3165 36.5157 36.9166 36.9154C36.5168 37.3153 35.8663 37.3154 35.4664 36.9154L31.6182 33.0671C31.3889 32.8379 31.0648 32.7305 30.7442 32.7776C30.4235 32.8246 30.144 33.0206 29.9902 33.3059C28.3328 36.383 28.7352 40.3351 31.3825 42.9823C33.487 45.0869 36.515 45.8539 39.3076 45.1065L42.9836 31.3812ZM42.9836 31.3812C45.0928 33.4905 45.8534 36.52 45.1077 39.3064L47.1556 41.3542L47.2263 41.4249L47.297 41.3542L52.7546 35.8967L52.8253 35.826L52.7546 35.7552L52.1002 35.1009L42.9836 31.3812ZM53.6246 47.9646L53.6654 48.0054L53.7211 47.9905C56.4798 47.2522 59.4709 48.0099 61.5497 50.0887C64.164 52.703 64.5622 56.6066 62.9245 59.647C62.7858 59.9046 62.5335 60.0814 62.2441 60.1238C61.9546 60.1661 61.6621 60.0694 61.4554 59.8625L61.3846 59.9332L61.4554 59.8625L57.6071 56.0143C57.1683 55.5754 56.4544 55.5754 56.0155 56.0143C55.5766 56.4531 55.5766 57.1669 56.0155 57.6058L59.8638 61.4541C60.0706 61.6609 60.1675 61.9534 60.125 62.2428C60.0825 62.5322 59.9058 62.7845 59.6483 62.9232C56.5964 64.5671 52.6954 64.1539 50.0899 61.5484C48.0064 59.4649 47.255 56.4723 47.9917 53.7199L48.0066 53.6641L47.9658 53.6233L47.2975 52.955L47.2268 52.8843L47.1561 52.955L37.6844 62.4269C35.7243 64.387 32.5348 64.3869 30.5748 62.4269C28.6078 60.4598 28.609 57.283 30.5748 55.3172L30.5041 55.2465L30.5748 55.3172L40.0465 45.8453L40.1172 45.7746L40.0465 45.7039L39.3783 45.0358L39.3375 44.995L39.2817 45.0099C36.523 45.7482 33.532 44.9905 31.4532 42.9116C28.8388 40.2974 28.4406 36.3938 30.0783 33.3533C30.217 33.0958 30.4693 32.919 30.7587 32.8765L30.7588 32.8765C31.0481 32.834 31.3406 32.9309 31.5475 33.1378L35.3957 36.9861C35.3957 36.9862 35.3957 36.9862 35.3957 36.9862C35.8346 37.4251 36.5484 37.425 36.9873 36.9862C37.4262 36.5474 37.4262 35.8335 36.9873 35.3946L33.1391 31.5464C32.9322 31.3395 32.8353 31.0471 32.8778 30.7576C32.9203 30.4682 33.097 30.216 33.3546 30.0772C36.4064 28.4333 40.3074 28.8465 42.9129 31.4519C44.9964 33.5355 45.7478 36.528 45.0111 39.2805L44.9962 39.3363L45.037 39.3771L47.1556 41.4956L47.2263 41.5663L47.297 41.4956L52.896 35.8967L52.9667 35.8259L52.896 35.7552L52.1709 35.0302C51.746 34.6052 51.8328 33.8921 52.3491 33.5823L59.5999 29.2319C59.9639 29.0135 60.4301 29.0708 60.7303 29.371L60.7303 29.371L63.6307 32.2713L63.7014 32.2006L63.6307 32.2713C63.931 32.5715 63.9884 33.0376 63.7699 33.4018L63.8556 33.4532L63.7699 33.4018L59.4194 40.6525C59.1084 41.1709 58.3953 41.2546 57.9715 40.8307L57.9008 40.9015L57.9715 40.8307L57.2464 40.1057L57.1757 40.035L57.105 40.1057L51.506 45.7047L51.4353 45.7754L51.506 45.8461L53.6246 47.9646ZM59.9877 31.2459L59.9325 31.1907L59.8656 31.2309L54.4276 34.4937L54.3177 34.5596L54.4083 34.6501L58.3516 38.5933L58.4421 38.6839L58.508 38.574L61.7708 33.1361L61.8109 33.0691L61.7557 33.0139L59.9877 31.2459ZM54.3461 37.2054L54.2754 37.1347L54.2047 37.2054L48.6057 42.8044L48.535 42.8751L48.6057 42.9458L50.0559 44.3959L50.1266 44.4666L50.1973 44.3959L55.7962 38.7969L55.8669 38.7262L55.7962 38.6555L54.3461 37.2054ZM31.8835 61.1183L31.9542 61.0476L31.8835 61.1183C33.1221 62.3568 35.1371 62.3568 36.3757 61.1183L45.8473 51.6464L45.918 51.5756L45.8473 51.5049L41.4965 47.1541L41.4258 47.0834L41.3551 47.1541L31.8835 56.626C30.6401 57.8694 30.6409 59.8757 31.8835 61.1183ZM61.6702 57.46L61.792 57.5818L61.8374 57.4156C62.4181 55.2889 61.8459 53.0025 60.241 51.3975L60.1703 51.4682L60.241 51.3975C58.5424 49.699 55.9822 49.1223 53.718 49.9283C53.3814 50.0481 53.0059 49.9635 52.7533 49.7108L43.2908 40.2484L43.2908 40.2484C43.0382 39.9958 42.9535 39.6203 43.0733 39.2837C43.8793 37.0193 43.3028 34.4593 41.6042 32.7607C39.9993 31.1558 37.7127 30.5835 35.586 31.1643L35.4199 31.2097L35.5417 31.3315L38.2961 34.0859C39.4564 35.2463 39.4564 37.1346 38.2961 38.2949C37.1356 39.4551 35.2473 39.4552 34.087 38.2949L31.3326 35.5405L31.2108 35.4187L31.1655 35.5849C30.5848 37.7116 31.157 39.9981 32.7618 41.603C34.4604 43.3015 37.0204 43.8781 39.2848 43.0721C39.6222 42.9521 39.9974 43.0375 40.2495 43.2896L49.7121 52.7521L49.7828 52.6814L49.7121 52.7521C49.9647 53.0047 50.0494 53.3802 49.9295 53.7168C49.1235 55.9811 49.7001 58.5412 51.3987 60.2398C53.0036 61.8446 55.2901 62.4169 57.4168 61.8362L57.583 61.7908L57.4612 61.669L54.7068 58.9146C53.5465 57.7542 53.5465 55.8659 54.7068 54.7056C55.8672 53.5453 57.7555 53.5454 58.9158 54.7056L61.6702 57.46Z" fill="white" stroke="#5BC3E3" stroke-width="0.2"/>
<path d="M42.2619 52.2534C42.6232 51.892 42.6232 51.3061 42.2619 50.9447C41.9005 50.5834 41.3147 50.5834 40.9533 50.9447L40.9533 50.9447M42.2619 52.2534L40.8826 50.874L40.9533 50.9447M42.2619 52.2534L35.996 58.5196C35.996 58.5196 35.996 58.5196 35.996 58.5196M42.2619 52.2534L35.996 58.5196M40.9533 50.9447L34.6873 57.2109L40.9533 50.9447ZM34.6873 58.5196C34.3259 58.1582 34.3259 57.5723 34.6873 57.2109L34.6873 58.5196ZM34.6873 58.5196C35.0488 58.881 35.6346 58.881 35.996 58.5196M34.6873 58.5196L35.996 58.5196" fill="white" stroke="#5BC3E3" stroke-width="0.2"/>
</svg>
