<svg width="93" height="93" viewBox="0 0 93 93" fill="none" xmlns="http://www.w3.org/2000/svg">
<circle cx="46.5" cy="46.5" r="42" fill="#5BC3E3" stroke="white" stroke-width="9"/>
<g clip-path="url(#clip0_1_273)">
<path d="M54.4921 33.9757L54.6992 34.1561V33.8814V30.6465C54.6992 30.0845 55.1548 29.6289 55.7168 29.6289H60.2871C60.849 29.6289 61.3047 30.0845 61.3047 30.6465V39.855V39.9119L61.3476 39.9493C61.4888 40.0724 61.9821 40.5022 62.5831 41.0258C63.79 42.0773 65.431 43.5071 65.5257 43.59L65.5259 43.5902C65.9496 43.9595 65.9938 44.6022 65.6246 45.026L65.7188 45.1081L65.6246 45.026C65.2555 45.4497 64.6127 45.4939 64.1889 45.1247L63.7969 44.7831L63.5898 44.6026V44.8774V62.6387C63.5898 63.2006 63.1342 63.6562 62.5722 63.6562H30.4277C29.8657 63.6562 29.4101 63.2006 29.4101 62.6387V44.8774V44.6026L29.203 44.7831L28.811 45.1247C28.3873 45.4938 27.7445 45.4497 27.3753 45.026C27.0061 44.6022 27.0503 43.9594 27.474 43.5902L27.3919 43.496L27.474 43.5902L45.8314 27.5941C46.2146 27.2603 46.7853 27.2603 47.1684 27.5941L54.4921 33.9757ZM56.8593 31.664H56.7343V31.789V35.8726V35.9295L56.7772 35.9669L59.0624 37.9581L59.2695 38.1385V37.8638V31.789V31.664H59.1445H56.8593ZM45.2324 61.4961V61.6211H45.3574H47.6425H47.7675V61.4961V53.0782C47.7675 52.6476 48.0386 52.2636 48.4443 52.1194C50.8163 51.2761 52.414 49.0771 52.414 46.6426C52.414 44.79 51.4886 43.0735 50.0014 41.9875L49.8027 41.8424V42.0885V46.6426C49.8027 46.9124 49.6955 47.1713 49.5047 47.362L49.5047 47.362L47.2195 49.6472C46.8221 50.0446 46.1778 50.0446 45.7805 49.6472L45.6921 49.7356L45.7805 49.6472L43.4953 47.362C43.3045 47.1712 43.1972 46.9124 43.1972 46.6426V42.102V41.8519L42.9972 42.002C41.556 43.0834 40.6621 44.7919 40.6621 46.6426C40.6621 49.0914 42.2273 51.2917 44.5556 52.1194L44.5975 52.0016L44.5556 52.1194C44.9614 52.2636 45.2324 52.6476 45.2324 53.0782V61.4961ZM61.4296 61.6211H61.5546V61.4961V42.8861V42.8293L61.5118 42.7919L46.5821 29.7826L46.5 29.711L46.4178 29.7826L31.4882 42.7918L31.4453 42.8292V42.8861V61.4961V61.6211H31.5703H43.0722H43.1972V61.4961V53.84V53.7611L43.1259 53.7272C40.4048 52.4332 38.6269 49.6788 38.6269 46.6426C38.6269 43.336 40.7352 40.364 43.8739 39.2481C44.1855 39.1375 44.5314 39.1849 44.8015 39.3756C45.0717 39.5663 45.2323 39.8763 45.2323 40.2069V46.1693V46.2211L45.2689 46.2577L46.4115 47.4003L46.4999 47.4887L46.5883 47.4003L47.7308 46.2577L47.7675 46.2211V46.1693V40.2069C47.7675 39.8763 47.9282 39.5663 48.1983 39.3756C48.4685 39.1849 48.8145 39.1374 49.1259 39.2481C52.3117 40.3806 54.4492 43.3536 54.4492 46.6426C54.4492 49.6668 52.6421 52.4237 49.8744 53.7285L49.8027 53.7623V53.8416V61.4961V61.6211H49.9277H61.4296Z" fill="white" stroke="#5BC3E3" stroke-width="0.25"/>
</g>
<defs>
<clipPath id="clip0_1_273">
<rect width="39" height="39" fill="white" transform="translate(27 26)"/>
</clipPath>
</defs>
</svg>
