<svg width="93" height="93" viewBox="0 0 93 93" fill="none" xmlns="http://www.w3.org/2000/svg">
<circle cx="46.5" cy="46.5" r="42" fill="#5BC3E3" stroke="white" stroke-width="9"/>
<path d="M55.5475 29.2025L55.5472 29.2022C55.3689 29.0257 55.1277 28.925 54.875 28.925H37.375C34.9221 28.925 32.925 30.9203 32.925 33.375V59.625C32.925 62.0797 34.9221 64.075 37.375 64.075H56.625C59.0779 64.075 61.075 62.0797 61.075 59.625V35.125C61.075 34.8723 60.9743 34.6311 60.7978 34.4528L60.7975 34.4525L55.5475 29.2025ZM59.175 59.625C59.175 61.0308 58.0308 62.175 56.625 62.175H37.375C35.9692 62.175 34.825 61.0308 34.825 59.625V33.375C34.825 31.9692 35.9692 30.825 37.375 30.825H54.4817L59.175 35.5183V59.625Z" fill="white" stroke="white" stroke-width="0.15"/>
<path d="M52.2499 55.175H41.7499C41.2255 55.175 40.7999 55.6006 40.7999 56.125C40.7999 56.6494 41.2255 57.075 41.7499 57.075H52.2499C52.7744 57.075 53.1999 56.6494 53.1999 56.125C53.1999 55.6006 52.7744 55.175 52.2499 55.175Z" fill="white" stroke="white" stroke-width="0.15"/>
<path d="M46.5761 51.7244L46.576 51.7243C46.1072 51.4889 45.9149 50.9191 46.1506 50.4495L46.5761 51.7244ZM46.5761 51.7244C46.7127 51.7927 46.8572 51.825 46.9999 51.825C47.3494 51.825 47.6838 51.6313 47.8509 51.3009L47.851 51.3006L51.3509 44.3007C51.351 44.3007 51.351 44.3006 51.351 44.3006C51.4993 44.0059 51.482 43.6562 51.3092 43.3771C51.1364 43.0979 50.8289 42.925 50.4999 42.925H45.037L47.8492 37.3007C48.085 36.8311 47.8927 36.2612 47.4238 36.0258L47.3902 36.0928L47.4239 36.0258C46.9521 35.788 46.3842 35.9844 46.149 36.451L46.1489 36.4512L42.6489 43.4511L42.7159 43.4848L42.6489 43.4512L42.6489 43.4512C42.5006 43.7459 42.5178 44.0956 42.6907 44.3748C42.8636 44.6542 43.1713 44.825 43.4999 44.825H48.9628L46.1507 50.4494L46.5761 51.7244Z" fill="white" stroke="white" stroke-width="0.15"/>
</svg>
