<svg width="157" height="29" viewBox="0 0 157 29" fill="none" xmlns="http://www.w3.org/2000/svg">
<path d="M27.5673 27.3333C27.5673 27.7091 27.4169 28.0694 27.149 28.3351C26.8811 28.6007 26.5178 28.75 26.139 28.75H6.14184C5.76301 28.75 5.3997 28.6007 5.13183 28.3351C4.86396 28.0694 4.71347 27.7091 4.71347 27.3333V14.5833H0.428367L15.1791 1.28367C15.4421 1.04634 15.7849 0.914827 16.1404 0.914827C16.496 0.914827 16.8387 1.04634 17.1017 1.28367L31.8525 14.5833H27.5673V27.3333ZM16.1404 23.0833L20.9383 18.3247C21.2367 18.0288 21.4735 17.6774 21.635 17.2906C21.7965 16.9039 21.8796 16.4894 21.8796 16.0708C21.8796 15.6522 21.7965 15.2377 21.635 14.851C21.4735 14.4643 21.2367 14.1129 20.9383 13.8169C20.6399 13.5209 20.2856 13.2861 19.8956 13.1259C19.5057 12.9658 19.0878 12.8833 18.6658 12.8833C18.2437 12.8833 17.8258 12.9658 17.4359 13.1259C17.046 13.2861 16.6917 13.5209 16.3932 13.8169L16.1404 14.0677L15.8876 13.8169C15.5892 13.5209 15.2349 13.2861 14.8449 13.1259C14.455 12.9658 14.0371 12.8833 13.6151 12.8833C13.193 12.8833 12.7751 12.9658 12.3852 13.1259C11.9952 13.2861 11.641 13.5209 11.3425 13.8169C11.0441 14.1129 10.8074 14.4643 10.6458 14.851C10.4843 15.2377 10.4012 15.6522 10.4012 16.0708C10.4012 16.4894 10.4843 16.9039 10.6458 17.2906C10.8074 17.6774 11.0441 18.0288 11.3425 18.3247L16.1404 23.0833Z" fill="#5BC3E3"/>
<path d="M46.1361 24.1756V9.48197H49.3654L54.4643 18.5566L59.5914 9.48197H62.7641V24.1756H59.7897V13.8367L55.4274 21.5628H53.4728L49.0821 13.8367V24.1756H46.1361Z" fill="#5BC3E3"/>
<path d="M72.8697 24.4566C71.6989 24.4566 70.6508 24.2599 69.7254 23.8666C68.8001 23.4545 67.9975 22.8926 67.3176 22.1809C66.6567 21.4692 66.1468 20.6638 65.788 19.7647C65.4292 18.847 65.2498 17.873 65.2498 16.8428C65.2498 15.8127 65.4292 14.8387 65.788 13.921C66.1468 13.0032 66.6567 12.1978 67.3176 11.5048C67.9975 10.7931 68.8001 10.2405 69.7254 9.8472C70.6697 9.43515 71.7178 9.22912 72.8697 9.22912C74.0217 9.22912 75.0603 9.43515 75.9857 9.8472C76.9299 10.2405 77.7325 10.7931 78.3935 11.5048C79.0733 12.1978 79.5927 13.0032 79.9515 13.921C80.3103 14.8387 80.4897 15.8127 80.4897 16.8428C80.4897 17.873 80.3103 18.847 79.9515 19.7647C79.5927 20.6638 79.0733 21.4692 78.3935 22.1809C77.7325 22.8926 76.9299 23.4545 75.9857 23.8666C75.0603 24.2599 74.0217 24.4566 72.8697 24.4566ZM68.4507 16.8709C68.4507 17.8074 68.649 18.6503 69.0456 19.3995C69.4421 20.1487 69.9709 20.7387 70.6319 21.1695C71.2928 21.6003 72.0388 21.8157 72.8697 21.8157C73.6818 21.8157 74.4183 21.6003 75.0792 21.1695C75.7591 20.72 76.2973 20.1206 76.6939 19.3714C77.0904 18.6035 77.2887 17.7606 77.2887 16.8428C77.2887 15.9063 77.0904 15.0635 76.6939 14.3143C76.2973 13.5651 75.7591 12.9751 75.0792 12.5443C74.4183 12.0948 73.6818 11.87 72.8697 11.87C72.0388 11.87 71.2928 12.0948 70.6319 12.5443C69.9709 12.9938 69.4421 13.5932 69.0456 14.3424C68.649 15.0729 68.4507 15.9157 68.4507 16.8709Z" fill="#5BC3E3"/>
<path d="M82.9701 24.1756V9.51007H86.086V20.0457L93.5927 9.48197H96.4254V24.1756H93.3094V13.8648L85.8877 24.1756H82.9701ZM89.7119 7.96484C88.3144 7.96484 87.2285 7.61834 86.4543 6.92533C85.6989 6.23232 85.3212 5.36138 85.3212 4.3125H87.3607C87.3607 4.85567 87.5401 5.30519 87.899 5.66106C88.2766 6.01693 88.881 6.19486 89.7119 6.19486C90.5239 6.19486 91.0999 6.02629 91.4398 5.68915C91.7986 5.35201 92.0158 4.89313 92.0913 4.3125H94.1309C94.1309 5.36138 93.7438 6.23232 92.9695 6.92533C92.2141 7.61834 91.1282 7.96484 89.7119 7.96484Z" fill="#5BC3E3"/>
<path d="M105.165 27.6875V21.4504H105.505C105.901 21.4504 106.269 21.338 106.609 21.1133C106.949 20.8885 107.251 20.5046 107.516 19.9614C107.78 19.3995 107.997 18.6316 108.167 17.6576C108.337 16.6649 108.441 15.4194 108.479 13.921L108.649 9.48197H119.215V21.4504H121.254V27.6875H118.507V24.1756H107.884V27.6875H105.165ZM109.612 21.4504H116.099V12.151H111.397L111.312 14.2019C111.255 15.6254 111.151 16.8241 111 17.7981C110.868 18.772 110.679 19.5493 110.434 20.13C110.207 20.7106 109.933 21.1507 109.612 21.4504Z" fill="#5BC3E3"/>
<path d="M130.272 24.4566C129.101 24.4566 128.053 24.2599 127.127 23.8666C126.202 23.4545 125.399 22.8926 124.72 22.1809C124.059 21.4692 123.549 20.6638 123.19 19.7647C122.831 18.847 122.652 17.873 122.652 16.8428C122.652 15.8127 122.831 14.8387 123.19 13.921C123.549 13.0032 124.059 12.1978 124.72 11.5048C125.399 10.7931 126.202 10.2405 127.127 9.8472C128.072 9.43515 129.12 9.22912 130.272 9.22912C131.424 9.22912 132.462 9.43515 133.388 9.8472C134.332 10.2405 135.135 10.7931 135.795 11.5048C136.475 12.1978 136.995 13.0032 137.353 13.921C137.712 14.8387 137.892 15.8127 137.892 16.8428C137.892 17.873 137.712 18.847 137.353 19.7647C136.995 20.6638 136.475 21.4692 135.795 22.1809C135.135 22.8926 134.332 23.4545 133.388 23.8666C132.462 24.2599 131.424 24.4566 130.272 24.4566ZM125.853 16.8709C125.853 17.8074 126.051 18.6503 126.448 19.3995C126.844 20.1487 127.373 20.7387 128.034 21.1695C128.695 21.6003 129.441 21.8157 130.272 21.8157C131.084 21.8157 131.82 21.6003 132.481 21.1695C133.161 20.72 133.699 20.1206 134.096 19.3714C134.492 18.6035 134.691 17.7606 134.691 16.8428C134.691 15.9063 134.492 15.0635 134.096 14.3143C133.699 13.5651 133.161 12.9751 132.481 12.5443C131.82 12.0948 131.084 11.87 130.272 11.87C129.441 11.87 128.695 12.0948 128.034 12.5443C127.373 12.9938 126.844 13.5932 126.448 14.3424C126.051 15.0729 125.853 15.9157 125.853 16.8709Z" fill="#5BC3E3"/>
<path d="M140.372 24.1756V9.48197H143.601L148.7 18.5566L153.827 9.48197H157V24.1756H154.026V13.8367L149.663 21.5628H147.709L143.318 13.8367V24.1756H140.372Z" fill="#5BC3E3"/>
<path fill-rule="evenodd" clip-rule="evenodd" d="M16.1404 23.0833L20.9383 18.3247C21.2367 18.0288 21.4735 17.6774 21.635 17.2906C21.7965 16.9039 21.8796 16.4894 21.8796 16.0708C21.8796 15.6522 21.7965 15.2377 21.635 14.851C21.4735 14.4643 21.2367 14.1129 20.9383 13.8169C20.6399 13.5209 20.2856 13.2861 19.8956 13.1259C19.5057 12.9658 19.0878 12.8833 18.6658 12.8833C18.2437 12.8833 17.8258 12.9658 17.4359 13.1259C17.046 13.2861 16.6917 13.5209 16.3932 13.8169L16.1404 14.0677L15.8876 13.8169C15.5892 13.5209 15.2349 13.2861 14.8449 13.1259C14.455 12.9658 14.0371 12.8833 13.6151 12.8833C13.193 12.8833 12.7751 12.9658 12.3852 13.1259C11.9952 13.2861 11.641 13.5209 11.3425 13.8169C11.0441 14.1129 10.8074 14.4643 10.6458 14.851C10.4843 15.2377 10.4012 15.6522 10.4012 16.0708C10.4012 16.4894 10.4843 16.9039 10.6458 17.2906C10.8074 17.6774 11.0441 18.0288 11.3425 18.3247L16.1404 23.0833ZM27.5673 27.3333C27.5673 27.7091 27.4169 28.0694 27.149 28.3351C26.8811 28.6007 26.5178 28.75 26.139 28.75H6.14184C5.76301 28.75 5.3997 28.6007 5.13183 28.3351C4.86396 28.0694 4.71347 27.7091 4.71347 27.3333V14.5833H0.428367L15.1791 1.28367C15.4421 1.04634 15.7849 0.914827 16.1404 0.914827C16.496 0.914827 16.8387 1.04634 17.1017 1.28367L31.8525 14.5833H27.5673V27.3333Z" fill="#5BC3E3"/>
</svg>
