<svg width="158" height="29" viewBox="0 0 158 29" fill="none" xmlns="http://www.w3.org/2000/svg">
<path d="M27.7482 27.3333C27.7482 27.7091 27.5967 28.0694 27.3271 28.3351C27.0576 28.6007 26.692 28.75 26.3107 28.75H6.18704C5.80581 28.75 5.4402 28.6007 5.17064 28.3351C4.90107 28.0694 4.74963 27.7091 4.74963 27.3333V14.5833H0.437408L15.2815 1.28367C15.5462 1.04634 15.8911 0.914827 16.2489 0.914827C16.6067 0.914827 16.9516 1.04634 17.2163 1.28367L32.0604 14.5833H27.7482V27.3333ZM16.2489 23.0833L21.0771 18.3247C21.3775 18.0288 21.6157 17.6774 21.7782 17.2906C21.9408 16.9039 22.0244 16.4894 22.0244 16.0708C22.0244 15.6522 21.9408 15.2377 21.7782 14.851C21.6157 14.4643 21.3775 14.1129 21.0771 13.8169C20.7768 13.5209 20.4203 13.2861 20.0279 13.1259C19.6355 12.9658 19.2149 12.8833 18.7902 12.8833C18.3655 12.8833 17.9449 12.9658 17.5526 13.1259C17.1602 13.2861 16.8036 13.5209 16.5033 13.8169L16.2489 14.0677L15.9945 13.8169C15.6941 13.5209 15.3376 13.2861 14.9452 13.1259C14.5528 12.9658 14.1323 12.8833 13.7076 12.8833C13.2828 12.8833 12.8623 12.9658 12.4699 13.1259C12.0775 13.2861 11.721 13.5209 11.4206 13.8169C11.1203 14.1129 10.8821 14.4643 10.7196 14.851C10.557 15.2377 10.4734 15.6522 10.4734 16.0708C10.4734 16.4894 10.557 16.9039 10.7196 17.2906C10.8821 17.6774 11.1203 18.0288 11.4206 18.3247L16.2489 23.0833Z" fill="white"/>
<path d="M46.4344 24.1756V9.48197H49.6842L54.8153 18.5566L59.9749 9.48197H63.1676V24.1756H60.1745V13.8367L55.7845 21.5628H53.8176L49.3991 13.8367V24.1756H46.4344Z" fill="white"/>
<path d="M73.3372 24.4566C72.159 24.4566 71.1043 24.2599 70.173 23.8666C69.2418 23.4545 68.4342 22.8926 67.75 22.1809C67.0849 21.4692 66.5718 20.6638 66.2107 19.7647C65.8496 18.847 65.6691 17.873 65.6691 16.8428C65.6691 15.8127 65.8496 14.8387 66.2107 13.921C66.5718 13.0032 67.0849 12.1978 67.75 11.5048C68.4342 10.7931 69.2418 10.2405 70.173 9.8472C71.1233 9.43515 72.178 9.22912 73.3372 9.22912C74.4965 9.22912 75.5417 9.43515 76.4729 9.8472C77.4231 10.2405 78.2308 10.7931 78.896 11.5048C79.5801 12.1978 80.1027 13.0032 80.4638 13.921C80.8249 14.8387 81.0054 15.8127 81.0054 16.8428C81.0054 17.873 80.8249 18.847 80.4638 19.7647C80.1027 20.6638 79.5801 21.4692 78.896 22.1809C78.2308 22.8926 77.4231 23.4545 76.4729 23.8666C75.5417 24.2599 74.4965 24.4566 73.3372 24.4566ZM68.8903 16.8709C68.8903 17.8074 69.0898 18.6503 69.4889 19.3995C69.888 20.1487 70.4201 20.7387 71.0852 21.1695C71.7504 21.6003 72.5011 21.8157 73.3372 21.8157C74.1544 21.8157 74.8956 21.6003 75.5607 21.1695C76.2449 20.72 76.7865 20.1206 77.1856 19.3714C77.5847 18.6035 77.7842 17.7606 77.7842 16.8428C77.7842 15.9063 77.5847 15.0635 77.1856 14.3143C76.7865 13.5651 76.2449 12.9751 75.5607 12.5443C74.8956 12.0948 74.1544 11.87 73.3372 11.87C72.5011 11.87 71.7504 12.0948 71.0852 12.5443C70.4201 12.9938 69.888 13.5932 69.4889 14.3424C69.0898 15.0729 68.8903 15.9157 68.8903 16.8709Z" fill="white"/>
<path d="M83.5015 24.1756V9.51007H86.6372V20.0457L94.1914 9.48197H97.042V24.1756H93.9063V13.8648L86.4377 24.1756H83.5015ZM90.286 7.96484C88.8797 7.96484 87.7869 7.61834 87.0078 6.92533C86.2476 6.23232 85.8675 5.36138 85.8675 4.3125H87.92C87.92 4.85567 88.1005 5.30519 88.4616 5.66106C88.8417 6.01693 89.4498 6.19486 90.286 6.19486C91.1032 6.19486 91.6828 6.02629 92.0249 5.68915C92.386 5.35201 92.6045 4.89313 92.6805 4.3125H94.733C94.733 5.36138 94.3434 6.23232 93.5642 6.92533C92.8041 7.61834 91.7113 7.96484 90.286 7.96484Z" fill="white"/>
<path d="M105.837 27.6875V21.4504H106.179C106.578 21.4504 106.948 21.338 107.29 21.1133C107.633 20.8885 107.937 20.5046 108.203 19.9614C108.469 19.3995 108.687 18.6316 108.858 17.6576C109.029 16.6649 109.134 15.4194 109.172 13.921L109.343 9.48197H119.976V21.4504H122.028V27.6875H119.263V24.1756H108.573V27.6875H105.837ZM110.312 21.4504H116.84V12.151H112.108L112.022 14.2019C111.965 15.6254 111.861 16.8241 111.709 17.7981C111.576 18.772 111.386 19.5493 111.139 20.13C110.911 20.7106 110.635 21.1507 110.312 21.4504Z" fill="white"/>
<path d="M131.103 24.4566C129.924 24.4566 128.87 24.2599 127.938 23.8666C127.007 23.4545 126.199 22.8926 125.515 22.1809C124.85 21.4692 124.337 20.6638 123.976 19.7647C123.615 18.847 123.434 17.873 123.434 16.8428C123.434 15.8127 123.615 14.8387 123.976 13.921C124.337 13.0032 124.85 12.1978 125.515 11.5048C126.199 10.7931 127.007 10.2405 127.938 9.8472C128.889 9.43515 129.943 9.22912 131.103 9.22912C132.262 9.22912 133.307 9.43515 134.238 9.8472C135.188 10.2405 135.996 10.7931 136.661 11.5048C137.345 12.1978 137.868 13.0032 138.229 13.921C138.59 14.8387 138.771 15.8127 138.771 16.8428C138.771 17.873 138.59 18.847 138.229 19.7647C137.868 20.6638 137.345 21.4692 136.661 22.1809C135.996 22.8926 135.188 23.4545 134.238 23.8666C133.307 24.2599 132.262 24.4566 131.103 24.4566ZM126.656 16.8709C126.656 17.8074 126.855 18.6503 127.254 19.3995C127.653 20.1487 128.185 20.7387 128.851 21.1695C129.516 21.6003 130.266 21.8157 131.103 21.8157C131.92 21.8157 132.661 21.6003 133.326 21.1695C134.01 20.72 134.552 20.1206 134.951 19.3714C135.35 18.6035 135.55 17.7606 135.55 16.8428C135.55 15.9063 135.35 15.0635 134.951 14.3143C134.552 13.5651 134.01 12.9751 133.326 12.5443C132.661 12.0948 131.92 11.87 131.103 11.87C130.266 11.87 129.516 12.0948 128.851 12.5443C128.185 12.9938 127.653 13.5932 127.254 14.3424C126.855 15.0729 126.656 15.9157 126.656 16.8709Z" fill="white"/>
<path d="M141.267 24.1756V9.48197H144.517L149.648 18.5566L154.807 9.48197H158V24.1756H155.007V13.8367L150.617 21.5628H148.65L144.231 13.8367V24.1756H141.267Z" fill="white"/>
<path fill-rule="evenodd" clip-rule="evenodd" d="M16.2489 23.0833L21.0771 18.3247C21.3775 18.0288 21.6157 17.6774 21.7782 17.2906C21.9408 16.9039 22.0244 16.4894 22.0244 16.0708C22.0244 15.6522 21.9408 15.2377 21.7782 14.851C21.6157 14.4643 21.3775 14.1129 21.0771 13.8169C20.7768 13.5209 20.4203 13.2861 20.0279 13.1259C19.6355 12.9658 19.2149 12.8833 18.7902 12.8833C18.3655 12.8833 17.9449 12.9658 17.5526 13.1259C17.1602 13.2861 16.8036 13.5209 16.5033 13.8169L16.2489 14.0677L15.9945 13.8169C15.6941 13.5209 15.3376 13.2861 14.9452 13.1259C14.5528 12.9658 14.1323 12.8833 13.7076 12.8833C13.2828 12.8833 12.8623 12.9658 12.4699 13.1259C12.0775 13.2861 11.721 13.5209 11.4206 13.8169C11.1203 14.1129 10.8821 14.4643 10.7196 14.851C10.557 15.2377 10.4734 15.6522 10.4734 16.0708C10.4734 16.4894 10.557 16.9039 10.7196 17.2906C10.8821 17.6774 11.1203 18.0288 11.4206 18.3247L16.2489 23.0833ZM27.7482 27.3333C27.7482 27.7091 27.5967 28.0694 27.3271 28.3351C27.0576 28.6007 26.692 28.75 26.3107 28.75H6.18704C5.80581 28.75 5.4402 28.6007 5.17064 28.3351C4.90107 28.0694 4.74963 27.7091 4.74963 27.3333V14.5833H0.437408L15.2815 1.28367C15.5462 1.04634 15.8911 0.914827 16.2489 0.914827C16.6067 0.914827 16.9516 1.04634 17.2163 1.28367L32.0604 14.5833H27.7482V27.3333Z" fill="white"/>
</svg>
