<svg width="18" height="18" viewBox="0 0 18 18" fill="none" xmlns="http://www.w3.org/2000/svg">
<path d="M16.5745 12.5619C16.5302 12.5268 13.3175 10.2111 12.4356 10.3773C12.0147 10.4518 11.774 10.7389 11.291 11.3136C11.2133 11.4065 11.0265 11.6288 10.8814 11.7869C10.5761 11.6874 10.2783 11.5662 9.99034 11.4243C8.5038 10.7006 7.30272 9.49949 6.57901 8.01294C6.437 7.72498 6.3158 7.42721 6.21634 7.12193C6.37501 6.97621 6.59736 6.78948 6.69234 6.70961C7.2644 6.22929 7.55205 5.98859 7.62653 5.56656C7.77926 4.69228 5.4651 1.45742 5.44082 1.42828C5.33582 1.27828 5.1988 1.1535 5.03966 1.06297C4.88052 0.972431 4.70324 0.9184 4.52066 0.904785C3.58269 0.904785 0.904785 4.37872 0.904785 4.96374C0.904785 4.99774 0.953896 8.45386 5.21577 12.7891C9.54672 17.0461 13.0023 17.0953 13.0363 17.0953C13.6219 17.0953 17.0953 14.4174 17.0953 13.4794C17.0818 13.2974 17.0281 13.1208 16.938 12.9621C16.848 12.8034 16.7238 12.6668 16.5745 12.5619Z" fill="#5BC3E3"/>
</svg>
